<svg width="156" height="40" viewBox="0 0 156 40" fill="none" xmlns="http://www.w3.org/2000/svg">
<path d="M53.3603 13.9177C53.8241 13.1942 54.4641 12.6099 55.2803 12.1646C56.0965 11.7194 57.0519 11.4968 58.1464 11.4968C59.4264 11.4968 60.5858 11.8215 61.6247 12.4707C62.6635 13.12 63.4797 14.0475 64.0734 15.2533C64.6855 16.4591 64.9916 17.8597 64.9916 19.4551C64.9916 21.0504 64.6855 22.4603 64.0734 23.6846C63.4797 24.8904 62.6635 25.8273 61.6247 26.4951C60.5858 27.1444 59.4264 27.469 58.1464 27.469C57.0705 27.469 56.1151 27.2464 55.2803 26.8012C54.4641 26.3559 53.8241 25.7809 53.3603 25.076V34.6481H48.6021V11.7194H53.3603V13.9177ZM60.1499 19.4551C60.1499 18.2678 59.816 17.3403 59.1481 16.6725C58.4989 15.9861 57.6919 15.6429 56.7273 15.6429C55.7812 15.6429 54.9742 15.9861 54.3064 16.6725C53.6571 17.3588 53.3325 18.2957 53.3325 19.4829C53.3325 20.6702 53.6571 21.607 54.3064 22.2933C54.9742 22.9797 55.7812 23.3229 56.7273 23.3229C57.6734 23.3229 58.4803 22.9797 59.1481 22.2933C59.816 21.5884 60.1499 20.6423 60.1499 19.4551Z" fill="#0B5373"/>
<path d="M82.1244 19.2325C82.1244 19.6777 82.0966 20.1415 82.041 20.6238H71.2723C71.3465 21.5884 71.6526 22.3304 72.1905 22.8499C72.7471 23.3507 73.4242 23.6012 74.2218 23.6012C75.4091 23.6012 76.2346 23.1003 76.6984 22.0986H81.7627C81.503 23.1188 81.0299 24.0371 80.3436 24.8533C79.6757 25.6696 78.8317 26.3096 77.8114 26.7733C76.7911 27.2371 75.6502 27.469 74.3888 27.469C72.8676 27.469 71.5134 27.1444 70.3262 26.4951C69.1389 25.8458 68.2114 24.9183 67.5436 23.7125C66.8757 22.5067 66.5418 21.0968 66.5418 19.4829C66.5418 17.869 66.8665 16.4591 67.5157 15.2533C68.1836 14.0475 69.1111 13.12 70.2984 12.4707C71.4856 11.8215 72.8491 11.4968 74.3888 11.4968C75.8914 11.4968 77.2271 11.8122 78.3957 12.4429C79.5644 13.0736 80.4734 13.9733 81.1227 15.142C81.7905 16.3107 82.1244 17.6742 82.1244 19.2325ZM77.2549 17.9803C77.2549 17.1641 76.9766 16.5148 76.4201 16.0325C75.8636 15.5502 75.1679 15.309 74.3331 15.309C73.5355 15.309 72.8584 15.5409 72.3018 16.0046C71.7639 16.4684 71.43 17.127 71.3001 17.9803H77.2549Z" fill="#0B5373"/>
<path d="M93.2886 23.2116V27.2464H90.8677C89.1425 27.2464 87.7976 26.829 86.8329 25.9942C85.8683 25.1409 85.386 23.7588 85.386 21.8481V15.6707H83.4938V11.7194H85.386V7.93508H90.1442V11.7194H93.2608V15.6707H90.1442V21.9038C90.1442 22.3675 90.2555 22.7015 90.4781 22.9055C90.7007 23.1096 91.0718 23.2116 91.5912 23.2116H93.2886Z" fill="#0B5373"/>
<path d="M98.3599 15.3925C98.8422 14.3722 99.6028 13.5281 100.642 12.8603C101.699 12.1739 102.951 11.8307 104.398 11.8307C105.771 11.8307 107.005 12.1554 108.099 12.8046C109.212 13.4354 110.075 14.3444 110.687 15.5316C111.318 16.7003 111.633 18.0638 111.633 19.622C111.633 21.1803 111.318 22.5531 110.687 23.7403C110.075 24.9275 109.212 25.8458 108.099 26.4951C107.005 27.1444 105.771 27.469 104.398 27.469C102.97 27.469 101.727 27.1351 100.669 26.4673C99.6121 25.7809 98.8422 24.9275 98.3599 23.9073V34.4255H96.4399V12.0533H98.3599V15.3925ZM109.657 19.622C109.657 18.3606 109.407 17.2754 108.906 16.3664C108.424 15.4388 107.756 14.7339 106.902 14.2516C106.049 13.7693 105.085 13.5281 104.009 13.5281C102.97 13.5281 102.014 13.7786 101.142 14.2794C100.289 14.7803 99.6121 15.4945 99.1112 16.422C98.6103 17.3496 98.3599 18.4255 98.3599 19.6499C98.3599 20.8742 98.6103 21.9502 99.1112 22.8777C99.6121 23.8052 100.289 24.5194 101.142 25.0203C102.014 25.5212 102.97 25.7716 104.009 25.7716C105.085 25.7716 106.049 25.5304 106.902 25.0481C107.756 24.5473 108.424 23.8331 108.906 22.9055C109.407 21.9594 109.657 20.8649 109.657 19.622Z" fill="#0B5373"/>
<path d="M128.963 18.8707C128.963 19.5386 128.945 20.0487 128.907 20.4012H116.302C116.358 21.5513 116.636 22.5345 117.137 23.3507C117.638 24.167 118.296 24.7884 119.113 25.2151C119.929 25.6232 120.819 25.8273 121.784 25.8273C123.045 25.8273 124.103 25.5212 124.956 24.909C125.828 24.2968 126.403 23.4713 126.681 22.4325H128.741C128.37 23.9165 127.572 25.1316 126.347 26.0777C125.142 27.0052 123.621 27.469 121.784 27.469C120.356 27.469 119.076 27.1536 117.944 26.5229C116.812 25.8736 115.922 24.9646 115.273 23.7959C114.642 22.6087 114.327 21.2267 114.327 19.6499C114.327 18.0731 114.642 16.691 115.273 15.5038C115.903 14.3165 116.785 13.4075 117.916 12.7768C119.048 12.1461 120.337 11.8307 121.784 11.8307C123.231 11.8307 124.492 12.1461 125.568 12.7768C126.663 13.4075 127.498 14.2609 128.073 15.3368C128.666 16.3942 128.963 17.5722 128.963 18.8707ZM126.987 18.8151C127.006 17.6835 126.774 16.7188 126.292 15.9212C125.828 15.1235 125.188 14.5206 124.372 14.1125C123.556 13.7044 122.665 13.5003 121.701 13.5003C120.254 13.5003 119.02 13.9641 118 14.8916C116.979 15.8191 116.414 17.127 116.302 18.8151H126.987Z" fill="#0B5373"/>
<path d="M135.059 13.6951V23.1281C135.059 24.0557 135.235 24.6957 135.588 25.0481C135.94 25.4006 136.562 25.5768 137.452 25.5768H139.233V27.2464H137.146C135.773 27.2464 134.753 26.931 134.085 26.3003C133.417 25.651 133.083 24.5936 133.083 23.1281V13.6951H130.969V12.0533H133.083V8.24117H135.059V12.0533H139.233V13.6951H135.059Z" fill="#0B5373"/>
<path d="M143.419 9.18725C143.03 9.18725 142.696 9.04812 142.417 8.76986C142.139 8.4916 142 8.14841 142 7.7403C142 7.33218 142.139 6.99827 142.417 6.73856C142.696 6.4603 143.03 6.32117 143.419 6.32117C143.809 6.32117 144.143 6.4603 144.421 6.73856C144.699 6.99827 144.838 7.33218 144.838 7.7403C144.838 8.14841 144.699 8.4916 144.421 8.76986C144.143 9.04812 143.809 9.18725 143.419 9.18725ZM144.393 12.0533V27.2464H142.445V12.0533H144.393Z" fill="#0B5373"/>
<path d="M151.336 13.6951V23.1281C151.336 24.0557 151.512 24.6957 151.865 25.0481C152.217 25.4006 152.839 25.5768 153.729 25.5768H155.51V27.2464H153.423C152.05 27.2464 151.03 26.931 150.362 26.3003C149.694 25.651 149.361 24.5936 149.361 23.1281V13.6951H147.246V12.0533H149.361V8.24117H151.336V12.0533H155.51V13.6951H151.336Z" fill="#0B5373"/>
<circle cx="14.5678" cy="20.9615" r="1.34615" fill="#0B5373"/>
<path fill-rule="evenodd" clip-rule="evenodd" d="M15.0362 0C4.72846 2.92308 1.0618 11.6026 0.516924 15.5769C0.511138 15.6337 0.505497 15.6904 0.5 15.747C2.57314 14.2957 7.78216 11.2657 12.0678 10.5769V13.75C14.3435 13.8782 18.8178 15.5962 18.5101 21.4423C18.7133 22.1296 18.8117 22.2028 19.5598 22.7593C19.649 22.8256 19.7474 22.8988 19.8563 22.9808C19.5678 24.4551 17.6063 27.6731 12.0678 28.75C11.5989 28.8412 11.0632 28.9189 10.4821 29.0033C8.37379 29.3094 5.66702 29.7024 3.37922 31.1373C6.62258 36.6479 11.7363 39.2752 15.0362 40C15.8054 30.1538 23.69 27.8846 27.5362 27.9808C34.8438 27.9038 37.9208 24.3269 37.9208 18.75V12.5962H27.5362C26.9977 8.05769 22.8721 5.76923 20.3721 5.76923H15.0362V0ZM21.8755 13.2692C22.619 13.2692 23.2217 12.6665 23.2217 11.9231C23.2217 11.1796 22.619 10.5769 21.8755 10.5769C21.1321 10.5769 20.5294 11.1796 20.5294 11.9231C20.5294 12.6665 21.1321 13.2692 21.8755 13.2692Z" fill="#0B5373"/>
</svg>
